<?xml version="1.0" encoding="UTF-8"?>
<svg xmlns="http://www.w3.org/2000/svg" version="1.1" viewBox="0 0 1080 1080">
  <defs>
    <style>
      .cls-1 {
        fill: #01697e;
      }

      .cls-2 {
        fill: #b38941;
      }
    </style>
  </defs>
  <!-- Generator: Adobe Illustrator 28.6.0, SVG Export Plug-In . SVG Version: 1.2.0 Build 709)  -->
  <g>
    <g id="Layer_1">
      <g id="Layer_1-2" data-name="Layer_1">
        <g>
          <g>
            <path class="cls-1" d="M793.21,904.14h46.18v-110.79h50.62v155.32h-147.58c-.12-2.11-.39-4.48-.39-6.84,0-245.48-.03-490.95.05-736.43.01-37.36,26.83-68.25,63.31-73.59,36.87-5.4,71.94,16.78,82.26,52.55,2.02,7.02,2.84,14.61,2.85,21.94.17,135.45.13,270.9.14,406.35v6.72h-51.08v-8.89c0-137.25.02-274.5.02-411.75,0-12.91-7.57-23.02-18.49-24.73-12.85-2.01-23.7,4.6-27.07,16.7-.65,2.33-.8,4.86-.8,7.3-.03,233.1-.03,466.2-.02,699.31v6.84h0Z"/>
            <path class="cls-1" d="M233.77,949h-51.11c-.13-2.55-.36-4.94-.36-7.32-.02-81.21-.12-162.42,0-243.63.07-44.37,32.45-76.71,76.66-76.79,54.45-.1,108.89-.03,163.34-.03h6.61v327.64h-51.27v-284.57h-46.84v284.5h-50.22v-284.57c-10.06,0-19.49-.73-28.75.21-9.01.91-16.37,9.62-17.63,18.95-.45,3.33-.42,6.73-.42,10.1-.02,82.11,0,164.22,0,246.33v9.19h0Z"/>
            <path class="cls-1" d="M462.81,621.6c2.39-.14,4.57-.37,6.76-.37,54.9-.02,109.8-.16,164.69.05,36.5.14,65.91,24.27,73.19,59.66,1.04,5.03,1.62,10.26,1.63,15.39.1,82.79.08,165.57.08,248.36,0,1.11-.12,2.22-.23,3.91h-51.79v-8.49c0-83.01-.02-166.02.05-249.03,0-9.55-2.31-17.94-10.67-23.39-2.91-1.9-6.54-3.46-9.94-3.68-8.27-.52-16.59-.17-25.89-.17v285.01h-50.64v-284.59h-46.26v284.43h-50.99v-327.1h0Z"/>
          </g>
          <g>
            <path class="cls-2" d="M706.32,613.05c-29.74-17.18-41.08-22.69-44.53-23.45-.56-.12-2.91-.56-4.76-2.45-1.22-1.25-1.97-3-2.47-5.58-4.27-21.83-11.01-42.93-22.43-62.22-6.14-10.38-11.3-21.83-19.42-30.43-14.42-15.27-29.63-30.27-46.53-42.62-11.37-8.3-35.35-23.78-70.81-32.3-8.19-1.97-40.87-9.29-82.78-2.6-29.19,4.66-50.44,14.26-59.63,18.55-18.1,8.45-34.47,19.6-49.29,33.1-35.67,32.5-57.55,72.6-66.95,119.76-.4,2.02-1.94,4.99-3.51,5.4-17.36,4.58-33.25,11.88-46.92,23.68-.45.39-1.21.42-2.98,1,1.04-10.68,9.83-93,52.66-149.3,20.05-26.35,46.03-47.08,46.03-47.08,6.04-4.82,18.33-14.2,35.36-23.89,18.26-10.4,33.34-16.25,38.46-18.17,13.27-4.98,49.5-17.22,97.67-15.8,25.91.77,46.11,5.21,56.43,7.84,10.97,2.79,87.61,23.44,143.06,93.33,18.54,23.37,28.7,44.68,32,51.89,8.14,17.8,14.16,36.6,17.99,56.32,2.81,14.45,4.03,29.21,5.98,43.83-.88.4-1.76.8-2.64,1.2h.01Z"/>
            <rect class="cls-2" x="839.36" y="681.95" width="50.46" height="50.46" transform="translate(-246.82 818.49) rotate(-45)"/>
          </g>
        </g>
      </g>
    </g>
  </g>
</svg>
<svg xmlns="http://www.w3.org/2000/svg" viewBox="0 0 100 100">
    <circle cx="50" cy="50" r="45" fill="#4f9bff"/>
    <text x="50" y="65" font-family="Arial" font-size="40" fill="white" text-anchor="middle">MMC</text>
</svg>