<?xml version="1.0" encoding="UTF-8"?>
<svg xmlns="http://www.w3.org/2000/svg" version="1.1" viewBox="0 0 1080 1080">
  <defs>
    <style>
      .cls-1 {
        fill: #01697e;
      }

      .cls-2 {
        fill: #b38941;
      }
    </style>
  </defs>
  <!-- Generator: Adobe Illustrator 28.6.0, SVG Export Plug-In . SVG Version: 1.2.0 Build 709)  -->
  <g>
    <g id="Layer_1">
      <g>
        <g>
          <g>
            <path class="cls-1" d="M468.29,651.88h32.92l19.4,67.99h.98l19.2-67.99h31.55l-21.95,73.67c-1.05,3.4-2.19,6.63-3.43,9.7-1.24,3.07-2.94,5.75-5.09,8.03-2.15,2.29-4.9,4.12-8.23,5.49-3.33,1.37-7.54,2.06-12.64,2.06h-22.53l-30.17-98.95Z"/>
            <path class="cls-1" d="M581.74,625.04c2.61-3.26,5.68-6.56,9.21-9.89,3.53-3.33,6.86-6.17,9.99-8.52,3.14,2.35,6.43,5.23,9.9,8.62,3.46,3.4,6.5,6.66,9.11,9.8-2.61,3.14-5.68,6.44-9.21,9.9-3.53,3.46-6.79,6.3-9.8,8.52-3-2.35-6.3-5.19-9.9-8.52-3.59-3.33-6.7-6.63-9.3-9.9ZM585.27,749.85v-97.97h31.35v97.97h-31.35Z"/>
            <path class="cls-1" d="M671.48,608.77v70.15c2.09-5.49,4.34-10.09,6.76-13.81,2.41-3.72,5-6.73,7.74-9.01,2.74-2.28,5.68-3.88,8.82-4.8,3.14-.91,6.4-1.37,9.8-1.37,4.96,0,9.31,1.05,13.03,3.13,3.72,2.09,6.89,5.03,9.5,8.82,2.61,3.79,4.57,8.36,5.88,13.72,1.3,5.36,1.96,11.3,1.96,17.83,0,10.84-1.47,19.98-4.41,27.43-2.94,7.45-7.02,13.46-12.25,18.03-5.23,4.57-11.43,7.87-18.61,9.9-7.19,2.02-15.02,3.04-23.51,3.04-6.01,0-11.99-.2-17.93-.59-5.95-.39-11.99-.85-18.12-1.37v-141.08h31.35ZM668.35,726.93c1.83.26,3.75.49,5.78.69,2.02.2,4.02.29,5.98.29,9.01,0,15.31-1.99,18.91-5.97,3.59-3.98,5.39-9.7,5.39-17.15,0-4.18-.26-8.13-.78-11.85-.52-3.72-1.34-7.02-2.45-9.89-1.11-2.87-2.45-5.13-4.02-6.76-1.57-1.63-3.33-2.45-5.29-2.45-3.14,0-5.91,1.24-8.33,3.72-2.42,2.48-4.54,6.01-6.37,10.58-1.83,4.57-3.46,10.16-4.9,16.75-1.44,6.6-2.74,13.94-3.92,22.04Z"/>
            <path class="cls-1" d="M749.66,700.87c0-8.62,1.3-16.13,3.92-22.53,2.61-6.4,6.24-11.72,10.87-15.97,4.64-4.24,10.15-7.38,16.56-9.4,6.4-2.02,13.39-3.04,20.96-3.04,14.89,0,26.36,4.18,34.39,12.54,8.03,8.36,12.05,20.71,12.05,37.03-1.7,4.05-3.92,7.64-6.66,10.78-12.67,0-23.78-.1-33.31-.29-9.54-.2-18.29-.88-26.26-2.06,1.04,6.14,3.46,11.01,7.25,14.6,3.79,3.59,9.6,5.39,17.44,5.39s14.53-.39,20.47-1.17c5.94-.78,10.87-1.7,14.79-2.74,0,1.7-.1,3.66-.29,5.88-.2,2.22-.46,4.41-.78,6.56-.33,2.15-.72,4.25-1.18,6.27-.46,2.03-.95,3.76-1.47,5.19-3.4,1.05-7.81,1.96-13.23,2.74-5.42.78-11.53,1.18-18.32,1.18-18.42,0-32.56-4.24-42.42-12.74-9.86-8.49-14.79-21.23-14.79-38.21ZM781.99,696.95c6.27-1.57,12.15-2.65,17.64-3.23,5.49-.59,11.43-.94,17.83-1.08-.66-6.27-2.29-10.97-4.9-14.11-2.61-3.13-6.6-4.7-11.95-4.7-5.62,0-10.03,1.99-13.23,5.98-3.2,3.99-5,9.7-5.39,17.14Z"/>
            <path class="cls-1" d="M896.03,729.28c3.66,0,6.66-.13,9.01-.39,2.35-.26,4.21-.69,5.58-1.27,1.37-.59,2.35-1.37,2.94-2.35.59-.98.88-2.12.88-3.43,0-2.48-1.27-4.31-3.82-5.49-2.55-1.18-5.71-2.15-9.5-2.94-3.79-.78-7.94-1.63-12.44-2.55-4.5-.91-8.66-2.42-12.44-4.51-3.79-2.09-6.96-4.96-9.5-8.62-2.55-3.65-3.82-8.62-3.82-14.89,0-11.1,4.24-19.36,12.74-24.79,8.49-5.42,20.38-8.13,35.66-8.13,5.49,0,11,.46,16.56,1.37,5.55.92,10.29,1.96,14.21,3.13-.13,1.57-.29,3.33-.49,5.29-.2,1.96-.49,3.95-.88,5.98-.39,2.03-.78,3.99-1.18,5.88-.39,1.9-.85,3.56-1.37,5-4.96-1.3-9.6-2.32-13.91-3.04-4.31-.72-8.62-1.08-12.93-1.08-5.88,0-10.06.62-12.54,1.86-2.48,1.24-3.72,3.17-3.72,5.78,0,2.35,1.27,4.02,3.82,5,2.54.98,5.71,1.83,9.5,2.55,3.79.72,7.94,1.5,12.44,2.35,4.51.85,8.65,2.29,12.44,4.31,3.79,2.03,6.95,4.9,9.5,8.62,2.55,3.72,3.82,8.79,3.82,15.18s-1.21,11.56-3.63,15.87c-2.42,4.31-5.71,7.81-9.89,10.48-4.18,2.68-9.11,4.57-14.79,5.68-5.68,1.11-11.86,1.67-18.52,1.67-2.74,0-5.81-.13-9.21-.39-3.4-.26-6.73-.59-9.99-.98-3.27-.39-6.24-.88-8.91-1.47-2.68-.59-4.6-1.14-5.78-1.67-1.17-3.4-2.19-7.15-3.04-11.27-.85-4.12-1.4-7.87-1.67-11.27,1.96.52,4.34,1.05,7.15,1.57,2.81.52,5.78,1.01,8.91,1.47,3.14.46,6.34.82,9.6,1.08,3.26.26,6.33.39,9.21.39Z"/>
          </g>
          <g>
            <path class="cls-1" d="M700.9,598.83c.28,2.08.5,3.93.64,5.54.14,1.61.21,3.28.21,4.99,1.55-3.71,3.4-6.5,5.54-8.35,2.14-1.86,4.33-2.78,6.58-2.78.25,1.39.43,2.95.55,4.68.12,1.74.18,3.42.18,5.05-2.49,0-4.54.25-6.15.73-1.61.49-2.9,1.36-3.86,2.6-.96,1.25-1.65,2.95-2.08,5.11-.43,2.16-.68,4.94-.77,8.32v4.71h-9.79v-19.58c0-2.16-.07-4.08-.21-5.75-.14-1.67-.28-3.43-.4-5.26h9.55Z"/>
            <path class="cls-1" d="M716.88,616.46c0-3.39.46-6.24,1.38-8.57.92-2.32,2.19-4.2,3.83-5.63,1.63-1.43,3.57-2.46,5.81-3.09,2.24-.63,4.69-.95,7.34-.95,1.88,0,3.74.06,5.6.18,1.85.12,3.74.26,5.66.43v30.6h-9.8v-8.45c-.65,1.71-1.35,3.15-2.11,4.32-.76,1.16-1.56,2.1-2.42,2.82-.86.71-1.78,1.21-2.75,1.5-.98.28-2,.43-3.06.43-1.51,0-2.86-.33-4.04-.98-1.18-.65-2.19-1.57-3-2.76-.82-1.18-1.43-2.61-1.84-4.28-.41-1.67-.61-3.53-.61-5.57ZM730.35,622.58c.98,0,1.85-.39,2.6-1.16.76-.77,1.42-1.89,1.99-3.34.57-1.45,1.08-3.19,1.53-5.23.45-2.04.86-4.32,1.22-6.85-.57-.08-1.17-.15-1.81-.21s-1.25-.09-1.87-.09c-2.82,0-4.78.62-5.91,1.87-1.12,1.24-1.68,3.03-1.68,5.35,0,1.31.08,2.54.24,3.7.16,1.16.42,2.19.77,3.09.35.9.76,1.6,1.25,2.11s1.04.77,1.65.77Z"/>
            <path class="cls-1" d="M753.29,598.83h9.55c.2,1.71.38,3.25.52,4.62.14,1.37.23,2.72.28,4.07,1.3-3.55,2.85-5.99,4.62-7.31,1.78-1.33,3.77-1.99,5.97-1.99,1.02,0,2.02.15,3,.46.98.31,1.89.82,2.72,1.53.84.71,1.54,1.68,2.11,2.91.57,1.22.94,2.75,1.1,4.59.65-1.84,1.37-3.36,2.14-4.56.77-1.2,1.6-2.17,2.48-2.91.88-.73,1.83-1.25,2.85-1.56,1.02-.31,2.1-.46,3.24-.46s2.19.18,3.28.55c1.08.37,2.05.99,2.91,1.87.86.88,1.55,2.06,2.08,3.55.53,1.49.8,3.38.8,5.66v19.58h-9.79v-17.32c0-2.2-.24-3.82-.71-4.87-.47-1.04-1.38-1.56-2.72-1.56-1.18,0-2.18.65-3,1.96-.82,1.31-1.48,3.05-1.99,5.23-.51,2.18-.88,4.7-1.1,7.56-.23,2.86-.34,5.86-.34,9h-9.79v-17.32c0-2.2-.23-3.82-.67-4.87-.45-1.04-1.37-1.56-2.75-1.56-1.18,0-2.18.65-3,1.96-.82,1.31-1.47,3.05-1.96,5.23-.49,2.18-.85,4.7-1.07,7.56-.22,2.86-.34,5.86-.34,9h-9.79v-19.58c0-2.16-.07-4.08-.21-5.75-.14-1.67-.28-3.43-.4-5.26Z"/>
            <path class="cls-1" d="M808.93,616.46c0-3.39.46-6.24,1.38-8.57.92-2.32,2.19-4.2,3.83-5.63,1.63-1.43,3.57-2.46,5.81-3.09,2.24-.63,4.69-.95,7.34-.95,1.88,0,3.74.06,5.6.18,1.85.12,3.74.26,5.66.43v30.6h-9.8v-8.45c-.65,1.71-1.35,3.15-2.11,4.32-.76,1.16-1.56,2.1-2.42,2.82-.86.71-1.78,1.21-2.75,1.5-.98.28-2,.43-3.06.43-1.51,0-2.86-.33-4.04-.98-1.18-.65-2.19-1.57-3-2.76-.82-1.18-1.43-2.61-1.84-4.28-.41-1.67-.61-3.53-.61-5.57ZM822.4,622.58c.98,0,1.85-.39,2.6-1.16.76-.77,1.42-1.89,1.99-3.34.57-1.45,1.08-3.19,1.53-5.23.45-2.04.86-4.32,1.22-6.85-.57-.08-1.17-.15-1.81-.21s-1.25-.09-1.87-.09c-2.82,0-4.78.62-5.91,1.87-1.12,1.24-1.68,3.03-1.68,5.35,0,1.31.08,2.54.24,3.7.16,1.16.42,2.19.77,3.09.35.9.76,1.6,1.25,2.11s1.04.77,1.65.77Z"/>
            <path class="cls-1" d="M862.91,598.22h1.47v-12.85h9.8v44.07h-9.8v-8.45c-.65,1.71-1.35,3.15-2.11,4.32-.76,1.16-1.56,2.1-2.42,2.82-.86.71-1.78,1.21-2.75,1.5-.98.28-2,.43-3.06.43-1.51,0-2.86-.33-4.04-.98-1.18-.65-2.19-1.57-3-2.76-.82-1.18-1.43-2.61-1.84-4.28-.41-1.67-.61-3.53-.61-5.57,0-3.39.46-6.24,1.38-8.57.92-2.32,2.19-4.2,3.83-5.63,1.63-1.43,3.57-2.46,5.81-3.09,2.24-.63,4.69-.95,7.34-.95ZM854.1,612.91c0,1.31.08,2.54.24,3.7.16,1.16.42,2.19.77,3.09.35.9.76,1.6,1.25,2.11s1.04.77,1.65.77c.98,0,1.85-.39,2.6-1.16.76-.77,1.42-1.89,1.99-3.34.57-1.45,1.08-3.19,1.53-5.23.45-2.04.86-4.32,1.22-6.85-.57-.08-1.17-.15-1.81-.21s-1.25-.09-1.87-.09c-2.82,0-4.78.62-5.91,1.87-1.12,1.24-1.68,3.03-1.68,5.35Z"/>
            <path class="cls-1" d="M880.17,616.46c0-3.39.46-6.24,1.38-8.57.92-2.32,2.19-4.2,3.83-5.63,1.63-1.43,3.57-2.46,5.81-3.09,2.24-.63,4.69-.95,7.34-.95,1.88,0,3.74.06,5.6.18,1.85.12,3.74.26,5.66.43v30.6h-9.8v-8.45c-.65,1.71-1.35,3.15-2.11,4.32-.76,1.16-1.56,2.1-2.42,2.82-.86.71-1.78,1.21-2.75,1.5-.98.28-2,.43-3.06.43-1.51,0-2.86-.33-4.04-.98-1.18-.65-2.19-1.57-3-2.76-.82-1.18-1.43-2.61-1.84-4.28-.41-1.67-.61-3.53-.61-5.57ZM893.64,622.58c.98,0,1.85-.39,2.6-1.16.76-.77,1.42-1.89,1.99-3.34.57-1.45,1.08-3.19,1.53-5.23.45-2.04.86-4.32,1.22-6.85-.57-.08-1.17-.15-1.81-.21s-1.25-.09-1.87-.09c-2.82,0-4.78.62-5.91,1.87-1.12,1.24-1.68,3.03-1.68,5.35,0,1.31.08,2.54.24,3.7.16,1.16.42,2.19.77,3.09.35.9.76,1.6,1.25,2.11s1.04.77,1.65.77Z"/>
            <path class="cls-1" d="M926.14,598.83c.2,1.71.38,3.25.52,4.62.14,1.37.23,2.72.28,4.07,1.3-3.55,2.85-5.99,4.62-7.31,1.78-1.33,3.77-1.99,5.97-1.99,1.1,0,2.19.18,3.28.55,1.08.37,2.05.99,2.91,1.87.86.88,1.55,2.06,2.08,3.55.53,1.49.8,3.38.8,5.66v19.58h-9.79v-17.32c0-2.2-.23-3.82-.67-4.87-.45-1.04-1.37-1.56-2.75-1.56-1.18,0-2.18.65-3,1.96-.82,1.31-1.47,3.05-1.96,5.23-.49,2.18-.85,4.7-1.07,7.56-.22,2.86-.34,5.86-.34,9h-9.79v-19.58c0-2.16-.07-4.08-.21-5.75-.14-1.67-.28-3.43-.4-5.26h9.55Z"/>
          </g>
        </g>
        <g>
          <rect class="cls-2" x="263.51" y="519.8" width="29.1" height="29.1" transform="translate(459.29 -40.11) rotate(45)"/>
          <path class="cls-2" d="M608.69,190.64l-5.61-5.61-5.61,5.61h.01c2.72,2.73,4.24,6.41,4.24,10.26v94.62l1.36-1.36,1.36,1.36v-94.63c0-3.84,1.53-7.53,4.24-10.24h0Z"/>
          <path class="cls-2" d="M373.21,444.7c80.57,5.88,165.29,38.97,246.1,20.27,42.75-9.89,70.26-38.69,82.07-80.45,2.15-7.59,4.2-15.22,6.19-22.85.4-1.54,3.06-12.01,1.38-6.06-24.94,88.2-122.36,85.8-196.37,74.96-86.47-12.66-174.25-33.88-261.16-10.86-10.14,2.69-19.88,6.13-29.14,10.28-.3.12-.58.22-.88.34-78.89,31.83-83.54,112.69-83.54,112.69,32.28-96.5,149.43-104.59,235.36-98.32Z"/>
          <path class="cls-2" d="M582.51,389.55l20.58,20.58,20.58-20.58-19.21-19.21v-61.44l8.6-8.63-9.96-9.96-1.36,1.36-8.6,8.6,8.6,8.63v61.43l-19.23,19.23ZM596.95,300.26l4.78-4.75,1.36-1.36,6.11,6.11-4.75,4.78-1.36,1.36-1.36-1.36-4.78-4.78Z"/>
          <path class="cls-2" d="M413.87,677.95c-.26-.14-.52-.28-.79-.41,0,0-.01,0-.02,0h0c-3.2-1.57-6.91-2.34-10.64-2.12-12.76.75-22.66,11.5-31.99,19.02-16.95,13.64-35.16,24.17-56.59,28.96-37.63,8.42-93.82-7.5-87.78-56.17-.3,2.39-.87,4.74-1.56,7.08l1.56-7.08s-21.06,38.27,5.02,64.74c.29.3.58.59.87.88.17.16.31.33.48.49v-.05c18,17.15,50.04,21.88,74.35,16.45,20.75-4.64,38.49-14.63,55.01-27.71,9.44-7.47,19.31-18.56,31.94-20.15,9.83-1.24,20.18,4.4,21.52,14.22l.16,2.78s17.71-30.88-1.56-40.89Z"/>
          <path class="cls-2" d="M443.22,632.28c-1.56-.94-3.11-1.72-4.65-2.44-15.3-9.06-23.51-25.99-20.83-44.04-.3,2.04-.77,4.05-1.29,6.06l1.29-6.06s-14.14,29.58-8.79,41.38c-24.97,6.23-48.13,30.49-70.27,40.68-17.48,8.04-38.42,12.61-57.63,9.33-14.67-2.5-27.83-11.88-30.96-25.61-.95-4.15-.67-8.5.35-12.63l.76-3.09s-3.6,6.97-6.59,16.46c-2.07,6.57-3.83,14.35-3.9,21.87-.12,3.35.12,6.58.9,9.54.08.32.21.59.31.9.31,1.17.7,2.3,1.16,3.4.07.17.14.34.22.51.12.28.23.57.36.85v-.12c9.58,20.45,37.64,22.14,57.61,18.89,26.34-4.28,45.6-18.73,66.95-33.5,18.18-12.58,40.96-22.86,62.1-13.25,1.44.84,2.91,1.64,4.47,2.34,1.11-4.15,2.22-8.29,3.33-12.44,2.9-8.47,6.36-18.27,5.1-19.03Z"/>
          <path class="cls-2" d="M705.49,426.99c-29.42,77.69-121.93,75.08-192.91,64.68-86.48-12.65-174.26-33.88-261.18-10.83-48.61,12.87-88.65,42.15-104.99,91.04-2.14,6.38-4.02,14.77-5.75,21.99-2.09,7.06-4.51,14.03-5.89,21.23-2.93,15.47-1.79,32.55,10.8,43.59,10.83,9.47,26.44,12.05,40.36,11.21,18.24-1.11,33.17-8.93,46.71-20.93.5-.45,1.01-.9,1.52-1.35h0s.06-.05.06-.05c3.18-2.83,6.37-5.74,9.23-8.86.15-.17.31-.37.47-.57l8.57-8.34s.89,9.23,1.59,11.78c0,.02.01.02.02.03.68,3.25,2.01,5.96,4.81,8.79,10.9,10.99,25.87,9.7,37.57,2.18v.02c20.22-11.6,24.03-45.48,24.66-53.43.02-.26.04-.52.06-.78.04-.58.06-.92.06-.92l-.03.05c1.48-33.95-38.65-43.6-68.5-29.98-18.87,8.6-36.24,24.67-46.58,42.67-4.89,8.52-7.98,18.35-10.48,28.28-9.45.76-19-.27-27.61-3.34-19.41-6.92-26.85-23.43-25.98-41.94,37.24-86.15,148.56-93.43,231.1-87.4,80.59,5.89,165.31,38.98,246.11,20.28,15.23-3.53,28.47-9.5,39.82-17.53l-.08.11c37.95-24.27,48.18-80.81,49.67-90.5l.22-1.44-3.45,10.26ZM203.33,633.39c4.18-5.54,8.85-10.83,13.84-15.66,10.34-9.99,22.91-18.08,36.67-22.39,20.85-6.54,51.06-.81,58.33,19.79-10.91,11.35-27.66,16.8-41.86,6.32-5.16-3.83-7.71-8.03-8.25-14.28-.71-7.79,1.25-12.46-5.92-5.18-9.31,9.47-17.89,19.63-29.45,26.74-7.79,4.75-16.94,7.9-26.33,9.26.9-1.6,1.9-3.18,2.96-4.59Z"/>
        </g>
      </g>
    </g>
  </g>
</svg>
